<?xml version="1.0" encoding="utf-8"?>
<!-- Generator: Adobe Illustrator 27.7.0, SVG Export Plug-In . SVG Version: 6.00 Build 0)  -->
<svg version="1.1" id="_x32_" xmlns="http://www.w3.org/2000/svg" xmlns:xlink="http://www.w3.org/1999/xlink" x="0px" y="0px"
	 viewBox="0 0 512 512" style="enable-background:new 0 0 512 512;" xml:space="preserve">
<style type="text/css">
	.st0{fill:#f9f9f9;}
	.st1{fill:none;stroke:#000000;stroke-miterlimit:10;}
</style>
<g>
	<g>
		<g>
			<path class="st0" d="M44,368.9c21,0,38.2,17.1,38.2,38.2c0,21-17.1,38.2-38.2,38.2S5.8,428.1,5.8,407
				C5.8,386,22.9,368.9,44,368.9z M44,424c9.4,0,17-7.6,17-17s-7.6-17-17-17s-17,7.6-17,17S34.6,424,44,424z"/>
		</g>
		<g>
			<path class="st0" d="M246.7,110.3c85.5,0,154,74.3,144.2,161.8c-7.6,67.8-63,121.9-131,128c-61.4,5.5-115.9-27.6-142-77.6
				c-0.9-1.8-2.7-2.9-4.8-2.9H78.3c-3.9,0-6.5,4-5,7.6c29,70,99.1,118.7,180.3,115.8c95-3.4,173.6-79.2,180.1-174.1
				c7.6-109.6-79.1-200.8-187.1-200.8c-78.3,0-145.3,48-173.4,116.1c-1.4,3.5,1.2,7.4,5,7.4h34.9c2,0,3.8-1.1,4.8-2.9
				C142.1,142,190.7,110.3,246.7,110.3z"/>
		</g>
	</g>
</g>
<!--<circle class="st1" cx="256" cy="256" r="18"/>-->
</svg>
